<svg id="tracking" xmlns="http://www.w3.org/2000/svg" x="320" y="10" width="320" height="320">
    <!-- Target symbol -->
    

    <svg id="tracking_target" x="130.0"
        y="130.0" width="60" height="60"
        fill="transparent">
        
        <circle cx="30.0" cy="30.0" r="25" stroke="#1d90ff"
            stroke-width="4" fill="transparent" />
        <circle cx="30.0" cy="30.0" r="2" stroke="#1d90ff" stroke-width="4"
            fill="#1d90ff" />

        <line x1="30.0" y1="55.0" x2="30.0" y2="42.5" stroke="#1d90ff"
            stroke-width="4" />
        <line x1="30.0" y1="5.0" x2="30.0" y2="17.5" stroke="#1d90ff"
            stroke-width="4" />

        <line y1="30.0" x1="55.0" y2="30.0" x2="42.5" stroke="#1d90ff"
            stroke-width="4" />
        <line y1="30.0" x1="5.0" y2="30.0" x2="17.5" stroke="#1d90ff"
            stroke-width="4" />
    </svg>


    
    <!-- Upper Left Corner -->
    <line x1="10" y1="10" x2="35" y2="10" stroke="#1d90ff"
        stroke-width="2" />
    <line x1="10" y1="35" x2="10" y2="10" stroke="#1d90ff"
        stroke-width="2" />

    <!-- Upper Right Corner -->
    <line x1="310" y1="10" x2="285" y2="10"
        stroke="#1d90ff" stroke-width="2" />
    <line x1="310" y1="35" x2="310" y2="10"
        stroke="#1d90ff" stroke-width="2" />

    <!-- Lower Left Corner -->
    <line x1="10" y1="310" x2="35" y2="310"
        stroke="#1d90ff" stroke-width="2" />
    <line x1="10" y1="310" x2="10" y2="285"
        stroke="#1d90ff" stroke-width="2" />

    <!-- Lower Right Corner -->
    <line x1="310" y1="310" x2="285"
        y2="310" stroke="#1d90ff" stroke-width="2" />
    <line x1="310" y1="310" x2="310"
        y2="285" stroke="#1d90ff" stroke-width="2" />

    
    

    <!-- Main horizontal line -->
    <line x1="10" y1="160" x2="310" y2="160" stroke="#1d90ff"
        stroke-width="2" />

    <!-- Main vertical line -->
    <line x1="160" y1="10" x2="160" y2="310" stroke="#1d90ff"
        stroke-width="2" />

    
    

    
    
    
    <line x1="140" y1="10.0" x2="180" y2="10.0"
        stroke="#1d90ff" stroke-width="2" />
    <line x1="140" y1="310.0" x2="180"
        y2="310.0" stroke="#1d90ff" stroke-width="2" />
    <line y1="140" x1="10.0" y2="180" x2="10.0"
        stroke="#1d90ff" stroke-width="2" />
    <line y1="140" x1="310.0" y2="180"
        x2="310.0" stroke="#1d90ff" stroke-width="2" />

    
    
    
    <line x1="150" y1="47.5" x2="170" y2="47.5"
        stroke="#1d90ff" stroke-width="2" />
    <line x1="150" y1="272.5" x2="170"
        y2="272.5" stroke="#1d90ff" stroke-width="2" />
    <line y1="150" x1="47.5" y2="170" x2="47.5"
        stroke="#1d90ff" stroke-width="2" />
    <line y1="150" x1="272.5" y2="170"
        x2="272.5" stroke="#1d90ff" stroke-width="2" />

    
    
    
    <line x1="140" y1="85.0" x2="180" y2="85.0"
        stroke="#1d90ff" stroke-width="2" />
    <line x1="140" y1="235.0" x2="180"
        y2="235.0" stroke="#1d90ff" stroke-width="2" />
    <line y1="140" x1="85.0" y2="180" x2="85.0"
        stroke="#1d90ff" stroke-width="2" />
    <line y1="140" x1="235.0" y2="180"
        x2="235.0" stroke="#1d90ff" stroke-width="2" />

    <!-- central box -->
    
    
    

    <rect id="tracking_box" x="122.5" y="122.5" width="75.0" height="75.0"
        stroke="#1d90ff" stroke-width="2" stroke-dasharray="4,2,1,2" fill="transparent" />

    


</svg>